<svg width="375" height="180" viewBox="0 0 375 180" fill="none" xmlns="http://www.w3.org/2000/svg">
<path d="M188.577 167.764L193.127 163.215H250.979V163.008H193.127L188.577 158.51L184.08 163.008H126.021V163.215H184.08L188.577 167.764ZM188.577 158.82L192.92 163.111L188.577 167.454L184.235 163.111L188.577 158.82Z" fill="#555555"/>
<path fill-rule="evenodd" clip-rule="evenodd" d="M279.021 105.648L279.413 107.998H279.189C278.853 106.544 277.567 105.928 276.112 105.928C275.888 105.928 275.664 105.928 275.384 106.04V110.069H275.944C277.119 110.069 277.79 109.621 277.79 108.67H278.014V111.971H277.846C277.734 111.244 277.511 110.348 276 110.348H275.44V114.097C275.44 114.713 275.72 115.048 276.615 115.048V115.272H272.643V115.048C273.538 115.048 273.818 114.713 273.818 114.097V106.823C273.818 106.264 273.482 105.872 272.587 105.872V105.648H279.021Z" fill="#333333"/>
<path fill-rule="evenodd" clip-rule="evenodd" d="M287.022 105.648L287.414 107.998H287.19C286.854 106.544 285.568 105.928 284.113 105.928C283.889 105.928 283.665 105.928 283.385 106.04V110.069H283.945C285.12 110.069 285.791 109.621 285.791 108.67H286.015V111.971H285.847C285.735 111.244 285.512 110.348 284.001 110.348H283.441V114.097C283.441 114.713 283.721 115.048 284.616 115.048V115.272H280.644V115.048C281.539 115.048 281.819 114.713 281.819 114.097V106.823C281.819 106.264 281.483 105.872 280.588 105.872V105.648H287.022Z" fill="#333333"/>
<path fill-rule="evenodd" clip-rule="evenodd" d="M270.684 105.648V105.872C270.013 105.872 269.621 106.208 269.621 106.823V114.041C269.621 114.713 270.069 114.992 270.684 114.992V115.216H266.936V114.992C267.607 114.936 267.999 114.657 267.999 114.041V106.823C267.999 106.208 267.607 105.872 266.936 105.872V105.648H270.684Z" fill="#333333"/>
<path fill-rule="evenodd" clip-rule="evenodd" d="M265.817 103.019L266.208 105.928H266.041C265.481 104.418 264.418 103.41 262.46 103.41V113.65C262.46 114.769 263.075 115.104 263.747 115.104V115.328H259.27V115.104C259.886 115.104 260.669 114.769 260.669 113.65V103.355C258.655 103.355 257.704 104.306 256.976 105.928H256.809L257.144 103.019H265.817Z" fill="#333333"/>
<path fill-rule="evenodd" clip-rule="evenodd" d="M320.481 112.139C320.481 113.65 321.544 114.769 323.111 114.769C323.782 114.769 324.566 114.433 325.125 113.817L321.992 109.845C321.208 110.013 320.481 110.852 320.481 112.139ZM324.733 106.152C324.733 104.921 324.174 104.306 323.111 104.306C322.048 104.306 321.432 104.921 321.432 105.928C321.432 107.103 322.999 108.67 322.999 108.67C324.23 107.998 324.733 107.271 324.733 106.152ZM323.223 108.95L325.908 112.307C325.908 112.307 326.188 111.747 326.244 111.244C326.244 110.628 325.908 110.404 325.405 110.292V110.125H328.314C328.314 110.125 328.37 110.292 328.314 110.292C327.755 110.404 327.363 110.572 326.971 110.852C326.636 111.244 326.468 111.579 326.132 112.475L327.363 113.985C327.923 114.601 328.594 114.936 329.377 114.992V115.216H326.188V114.992L325.293 113.929C324.566 114.657 323.335 115.328 322.16 115.328C320.257 115.328 319.026 114.265 319.026 112.81C319.026 111.188 320.537 110.181 321.712 109.397C321.712 109.397 320.425 107.943 320.425 106.6C320.425 105.089 321.6 103.914 323.167 103.914C324.566 103.914 325.685 104.921 325.685 106.152C325.685 107.663 324.062 108.278 323.223 108.95Z" fill="#333333"/>
<path fill-rule="evenodd" clip-rule="evenodd" d="M342.582 102.795L342.693 106.656H342.47C342.078 104.473 340.623 103.243 338.833 103.243C336.651 103.243 335.14 105.76 335.14 109.173C335.14 113.37 336.819 115.104 339.113 115.104C341.518 115.104 342.47 112.866 342.693 111.299H342.917V112.978C342.526 113.705 341.295 115.328 338.777 115.328C335.588 115.328 333.07 112.698 333.07 109.173C333.07 105.984 335.867 103.019 338.777 103.019C340.455 103.019 340.903 103.746 341.574 103.746C342.078 103.746 342.302 103.41 342.302 102.795H342.582V102.795Z" fill="#333333"/>
<path fill-rule="evenodd" clip-rule="evenodd" d="M354.276 113.482C354.779 113.482 355.171 113.873 355.171 114.377C355.171 114.88 354.779 115.216 354.276 115.216C353.772 115.216 353.38 114.88 353.38 114.377C353.38 113.873 353.772 113.482 354.276 113.482Z" fill="#333333"/>
<path fill-rule="evenodd" clip-rule="evenodd" d="M345.491 110.292C345.491 113.258 346.666 115.104 348.457 115.104C350.303 115.104 351.478 113.426 351.478 110.292C351.478 107.439 350.471 105.872 348.513 105.816C346.498 105.76 345.491 107.663 345.491 110.292ZM348.457 105.593C351.198 105.593 353.492 107.663 353.492 110.46C353.492 113.146 351.31 115.272 348.513 115.272C345.771 115.272 343.477 113.09 343.477 110.46C343.477 107.831 345.715 105.593 348.457 105.593Z" fill="#333333"/>
<path fill-rule="evenodd" clip-rule="evenodd" d="M290.771 107.663L292.394 111.635H289.148L290.771 107.663ZM296.142 115.048C295.807 115.048 295.527 114.712 295.359 114.489C295.247 114.265 291.498 105.145 291.498 105.145L288.085 113.481C287.694 114.545 287.134 115.048 286.407 115.048V115.272H289.204V115.048C288.645 114.992 288.253 114.712 288.253 114.321C288.253 113.985 289.148 111.859 289.148 111.859H292.505C292.505 111.859 293.457 113.873 293.457 114.321C293.513 114.656 292.953 115.048 292.449 115.048V115.272H296.142V115.048Z" fill="#333333"/>
<path fill-rule="evenodd" clip-rule="evenodd" d="M297.653 113.593C297.653 114.489 297.093 114.88 296.478 115.048V115.272H299.275V115.048C298.492 114.88 298.044 114.321 298.044 113.593V107.327L304.591 115.44V107.607C304.591 106.488 305.206 105.816 305.933 105.816V105.648H302.8V105.816C303.695 106.096 304.311 106.6 304.311 107.663V112.474L298.828 105.648H296.254V105.816C297.373 105.872 297.653 106.767 297.653 106.991V113.593Z" fill="#333333"/>
<path fill-rule="evenodd" clip-rule="evenodd" d="M306.27 105.872C306.661 105.872 306.773 105.872 307.053 106.432C307.053 106.432 310.018 111.188 310.018 111.244V114.097C310.018 114.713 309.459 115.048 308.675 115.104V115.272H312.816V115.104C312.088 115.048 311.585 114.713 311.585 114.097V110.74C311.585 110.74 313.487 107.327 313.655 106.991C314.103 106.264 314.718 105.816 315.501 105.76V105.648H312.144L312.2 105.76C313.263 105.76 313.543 106.767 313.152 107.383L311.361 110.628L309.235 106.879C308.899 106.32 309.347 105.76 310.13 105.76V105.648H306.27V105.872Z" fill="#333333"/>
<path fill-rule="evenodd" clip-rule="evenodd" d="M233.543 102.599H236.838C236.485 102.893 236.25 103.246 236.25 103.717V115.131C236.25 115.602 236.485 115.955 236.838 116.249H233.543C233.896 115.955 234.131 115.602 234.131 115.131V103.717C234.131 103.187 233.896 102.834 233.543 102.599Z" fill="#333333"/>
<path fill-rule="evenodd" clip-rule="evenodd" d="M156.582 107.483C156.052 106.306 155.464 105.188 154.464 104.306C153.404 103.423 152.051 102.835 150.639 102.835C146.932 102.835 145.285 106.189 145.285 109.484C145.285 112.661 146.873 115.897 150.463 115.897C151.934 115.897 153.346 115.25 154.228 114.132V111.543C154.228 110.837 153.993 110.366 153.463 109.954H157.288C156.876 110.425 156.641 110.896 156.641 111.543V114.132C154.875 115.779 152.757 116.721 150.345 116.721C146.05 116.78 142.578 113.661 142.578 109.307C142.578 105.012 145.991 102.07 150.168 102.07C152.757 102.07 154.875 103.011 156.582 104.953V107.483Z" fill="#333333"/>
<path fill-rule="evenodd" clip-rule="evenodd" d="M165.878 102.599H169.468C168.997 102.952 168.82 103.364 168.82 103.952V112.307C168.82 114.602 171.527 115.72 173.469 115.72C175.41 115.72 177.94 114.602 177.94 112.366V103.952C177.94 103.364 177.823 103.011 177.411 102.599H179.353C178.941 103.011 178.823 103.422 178.823 103.952V112.366C178.823 115.367 175.293 116.543 172.821 116.543C170.291 116.543 166.584 115.426 166.584 112.307V103.952C166.526 103.364 166.29 102.952 165.878 102.599Z" fill="#333333"/>
<path fill-rule="evenodd" clip-rule="evenodd" d="M201.711 107.541C201.241 106.364 200.652 105.305 199.711 104.422C198.652 103.481 197.357 102.893 195.945 102.893C192.238 102.893 190.356 106.129 190.356 109.424C190.356 112.778 192.297 115.955 195.945 115.955C198.652 115.955 200.593 114.072 201.711 111.777V114.249C200.064 115.896 197.887 116.779 195.474 116.779C191.062 116.779 187.767 113.954 187.767 109.424C187.825 104.952 191.003 102.069 195.298 102.069C197.71 102.069 200.005 102.893 201.711 104.54V107.541Z" fill="#333333"/>
<path fill-rule="evenodd" clip-rule="evenodd" d="M224.776 107.541C224.305 106.364 223.717 105.305 222.776 104.423C221.716 103.481 220.422 102.893 219.01 102.893C215.303 102.893 213.479 106.129 213.479 109.424C213.479 112.778 215.421 115.955 219.069 115.955C221.775 115.955 223.717 114.072 224.835 111.778V114.249C223.129 115.896 221.01 116.779 218.598 116.779C214.185 116.779 210.89 113.955 210.89 109.424C210.89 105.011 214.067 102.128 218.363 102.128C220.775 102.128 223.07 102.952 224.776 104.599V107.541Z" fill="#333333"/>
<path fill-rule="evenodd" clip-rule="evenodd" d="M76.5158 105.054C76.1461 105.054 75.8585 104.849 75.8585 104.479C75.8585 103.904 76.4336 103.165 77.0087 103.165C77.3784 103.165 77.5427 103.493 77.5427 103.822C77.5838 104.438 77.173 105.054 76.5158 105.054Z" fill="#333333"/>
<path fill-rule="evenodd" clip-rule="evenodd" d="M39.9148 113.311C37.6555 114.913 34.4925 116.803 31.6581 116.803C28.7415 116.803 26.6465 114.831 26.6465 111.914C26.6465 110.312 27.2627 108.751 27.961 107.355C29.3166 104.643 31.3294 102.179 33.6709 100.248C35.4784 98.7692 37.6555 97.6189 39.9559 97.0438C40.5721 96.8795 41.2293 96.7974 41.8455 96.7974C42.6671 96.7974 43.5297 96.9206 44.2692 97.2903L45.3372 97.8654C45.5426 97.9886 45.7891 97.9886 45.9945 97.9886C46.7749 97.9886 47.4322 97.5368 48.0484 97.0849L48.2949 97.3725C46.8571 98.3172 46.2409 99.3442 45.6658 100.946L45.4194 100.782C45.5426 100.412 45.6248 100.084 45.6248 99.7139C45.6248 97.9065 43.3654 97.0438 41.8044 97.0438C40.6543 97.0438 39.504 97.4135 38.4771 97.9065C34.78 99.7139 31.8224 103 30.0149 106.697C29.1523 108.464 28.495 110.435 28.495 112.448C28.495 114.79 29.8095 116.392 32.1921 116.392C34.7468 116.392 37.6507 114.491 39.7728 113.102L39.9559 112.982C40.2845 112.202 40.6543 111.503 41.1883 110.846C42.7903 108.751 45.3372 106.615 48.0895 106.615C49.5272 106.615 50.2255 107.313 50.2666 108.71L51.2114 107.108H52.9367L48.8699 114.215L48.8248 114.304C48.6704 114.61 48.5002 114.946 48.5002 115.283C48.5002 115.693 48.911 115.94 49.3218 115.94C50.3019 115.94 51.3568 115.117 52.0938 114.542L52.1973 114.461C54.128 112.982 55.8944 111.257 57.0446 109.08L58.1537 107.067H60.0022L59.5093 107.971C60.413 107.437 61.481 106.985 62.5491 106.985C63.1653 106.985 63.7404 107.272 63.7404 107.93C63.7404 108.423 63.4939 108.792 63.1242 109.121C63.2063 109.162 63.2474 109.203 63.3296 109.203C63.64 109.203 63.9138 109.02 64.151 108.861L64.1922 108.833C65.7532 107.847 67.191 106.492 68.0947 104.931L69.3681 102.754H71.0934L68.9163 106.574H71.4631L71.3399 106.903H68.793L64.5209 114.297C64.3565 114.584 64.1922 114.913 64.1922 115.242C64.1922 115.652 64.6852 115.858 65.0549 115.858C65.8175 115.858 66.5016 115.387 67.1457 114.944L67.191 114.913C68.3412 114.091 69.4092 113.064 70.3951 112.079C71.1345 111.339 71.8328 110.6 72.449 109.778C72.7776 109.326 73.0652 108.874 73.3527 108.423L74.1332 107.149H75.8174L71.6274 114.543C71.4631 114.79 71.381 115.118 71.381 115.406C71.381 115.735 71.6274 116.022 71.9561 116.022C72.9419 116.022 74.0511 115.201 74.7905 114.543L77.8303 111.873C79.5145 109.901 82.2668 106.779 85.1012 106.779C86.0049 106.779 87.0319 107.231 87.0319 108.258C87.0319 109.039 86.4978 109.778 86.0049 110.312C84.8958 111.503 83.2526 112.202 81.7327 112.613C80.9523 112.818 80.1718 112.859 79.3913 112.859C79.1448 113.434 78.8983 114.009 78.8983 114.625C78.8983 115.488 79.6788 116.228 80.5415 116.228C82.6365 116.228 85.7173 114.05 87.2373 112.859C88.5107 111.832 89.702 110.641 90.77 109.408C90.8314 109.335 90.8937 109.261 90.9563 109.187C91.3122 108.766 91.6756 108.337 91.9202 107.847L92.331 107.108H94.0563L92.8239 109.491C94.1795 108.258 95.8227 107.026 97.7123 107.026C98.3285 107.026 98.8214 107.396 98.8214 108.053C98.8214 108.628 98.2874 109.326 97.6712 109.326C97.3426 109.326 97.0139 108.998 97.0139 108.669C97.0139 108.135 97.589 107.765 98.082 107.765C98.1641 107.765 98.2874 107.765 98.3695 107.806C98.2052 107.478 97.9587 107.313 97.589 107.313C96.6853 107.313 95.8227 107.765 95.0832 108.176C93.399 109.162 92.1256 110.723 91.1397 112.366L88.675 116.556H86.9086L90.8932 109.696C90.0306 110.723 89.1269 111.668 88.0999 112.53C86.9497 113.516 85.7173 114.379 84.4439 115.159C83.1294 115.94 81.6095 116.679 80.0485 116.679C78.5286 116.679 77.132 115.817 77.132 114.174C77.132 113.716 77.2381 113.294 77.3519 112.841L77.3784 112.736C77.2476 112.856 77.1116 112.983 76.9709 113.114C75.4319 114.55 73.3243 116.515 71.2166 116.515C70.354 116.515 69.6557 116.228 69.6557 115.283C69.6557 114.755 69.9564 114.258 70.2233 113.817C70.2684 113.743 70.3125 113.67 70.354 113.598L71.7507 111.134C70.354 112.654 68.9163 114.132 67.232 115.283C66.2872 115.94 65.2192 116.556 64.069 116.556C63.3296 116.556 62.5491 116.104 62.5491 115.283C62.5491 114.679 62.8866 114.106 63.1903 113.591C63.2164 113.546 63.2422 113.503 63.2675 113.459C63.2886 113.423 63.3093 113.387 63.3296 113.352L66.9034 107.067C66.2462 107.683 65.5889 108.258 64.8905 108.792C64.8395 108.83 64.7878 108.868 64.7356 108.907L64.7309 108.91C64.1543 109.338 63.5059 109.819 62.7545 109.819C62.2615 109.819 61.8508 109.532 61.8508 108.998C61.8508 108.464 62.3026 108.053 62.8366 108.053C63.0009 108.053 63.1242 108.094 63.2474 108.176C63.2885 108.094 63.3296 107.971 63.3296 107.847C63.3296 107.478 62.8777 107.272 62.5902 107.272C61.6864 107.272 60.7416 107.724 60.0022 108.135C59.2628 108.587 58.7699 109.326 58.3591 110.066L54.6209 116.556H52.8135L55.4836 111.914C53.7172 113.804 50.8006 116.597 48.0895 116.597C47.35 116.597 46.6928 116.228 46.6928 115.447C46.6928 114.954 46.8982 114.502 47.1036 114.05C45.8301 115.406 44.0638 116.803 42.092 116.803C40.8186 116.803 39.7094 115.899 39.7094 114.584C39.6684 114.132 39.7916 113.722 39.9148 113.311ZM49.9791 108.381C49.9791 107.437 49.2397 106.862 48.3359 106.862C47.309 106.862 46.4874 107.355 45.7069 107.93C44.1048 109.08 42.7493 110.723 41.8866 112.489C41.558 113.147 41.2704 113.804 41.2704 114.584C41.2704 115.406 41.7634 116.186 42.6671 116.186C44.7621 116.186 46.9803 113.845 48.2127 112.243C48.9521 111.216 49.9791 109.655 49.9791 108.381ZM80.0075 112.489H79.5145L79.63 112.296C80.6632 110.569 82.7574 107.067 84.8136 107.067C85.3066 107.067 85.8406 107.272 85.8406 107.806C85.8406 108.792 84.8958 110.025 84.1975 110.682C83.1294 111.709 81.5274 112.489 80.0075 112.489Z" fill="#333333"/>
<path d="M278.631 74.3011V72.9795H279.865V74.3011H280.514V71.2778H279.865V72.4673H278.631V71.2778H277.981V74.3011H278.631Z" fill="#333333"/>
<path d="M286.229 71.2778V72.9134C286.229 73.4255 286.213 73.8881 285.58 73.8881C284.947 73.8881 284.93 73.4255 284.93 72.9134V71.2778H284.265V73.1777C284.265 73.9872 284.849 74.3672 285.58 74.3672C286.31 74.3672 286.895 73.9707 286.895 73.1777V71.2778H286.229Z" fill="#333333"/>
<path d="M292.658 73.1942V73.8054C292.496 73.855 292.333 73.9046 292.09 73.9046C291.473 73.9046 291.213 73.475 291.213 72.7977C291.213 72.1203 291.457 71.6908 292.025 71.6908C292.415 71.6908 292.642 71.9386 292.642 72.2029H293.291C293.291 71.6082 292.772 71.2117 291.976 71.2117C291.359 71.2117 290.515 71.5916 290.515 72.7811C290.515 73.9872 291.327 74.3506 292.041 74.3506C292.658 74.3506 293.064 74.2185 293.291 74.1193V72.682H292.057V73.1776H292.658V73.1942Z" fill="#333333"/>
<path d="M322.758 72.1204C322.758 71.5091 322.157 71.1787 321.605 71.1787C321.053 71.1787 320.437 71.5256 320.437 72.1204C320.437 72.5499 320.745 72.7812 321.167 72.9134C321.297 72.9464 321.524 73.029 321.638 73.0621C322.044 73.1777 322.19 73.2934 322.19 73.5412C322.19 73.8716 321.865 73.9873 321.687 73.9873C321.2 73.9873 321.021 73.7064 321.021 73.3595H320.372C320.372 74.0368 320.859 74.4168 321.67 74.4168C322.304 74.4168 322.872 74.0699 322.872 73.4586C322.872 72.9795 322.515 72.7151 322.06 72.583C321.898 72.5334 321.752 72.5004 321.589 72.4508C321.232 72.3352 321.07 72.236 321.07 72.0213C321.07 71.8065 321.232 71.6248 321.573 71.6248C321.93 71.6248 322.093 71.8561 322.093 72.1534H322.758V72.1204Z" fill="#333333"/>
<path d="M329.122 72.1204C329.122 71.5091 328.522 71.1787 327.97 71.1787C327.418 71.1787 326.801 71.5256 326.801 72.1204C326.801 72.5499 327.109 72.7812 327.531 72.9134C327.661 72.9464 327.889 73.029 328.002 73.0621C328.408 73.1777 328.554 73.2934 328.554 73.5412C328.554 73.8716 328.229 73.9873 328.051 73.9873C327.564 73.9873 327.385 73.7064 327.385 73.3595H326.736C326.736 74.0368 327.223 74.4168 328.035 74.4168C328.668 74.4168 329.236 74.0699 329.236 73.4586C329.236 72.9795 328.879 72.7151 328.424 72.583C328.262 72.5334 328.116 72.5004 327.953 72.4508C327.596 72.3352 327.434 72.236 327.434 72.0213C327.434 71.8065 327.596 71.6248 327.937 71.6248C328.294 71.6248 328.457 71.8561 328.457 72.1534H329.122V72.1204Z" fill="#333333"/>
<path d="M298.454 74.4004C299.477 74.4004 299.931 73.7065 299.931 72.7978C299.931 71.8892 299.477 71.1953 298.454 71.1953C297.431 71.1953 296.977 71.8892 296.977 72.7978C296.977 73.7065 297.431 74.4004 298.454 74.4004ZM298.454 71.6579C299.103 71.6579 299.233 72.2526 299.233 72.7813C299.233 73.31 299.103 73.9047 298.454 73.9047C297.805 73.9047 297.675 73.31 297.675 72.7813C297.675 72.2692 297.805 71.6579 298.454 71.6579Z" fill="#333333"/>
<path d="M308.699 74.3343C309.299 74.3343 309.851 74.0369 309.851 73.4752C309.851 73.0126 309.494 72.7483 309.137 72.7152C309.38 72.6822 309.705 72.4179 309.705 72.0379C309.705 71.4927 309.299 71.2449 308.666 71.2449H307.351V74.3343H308.699ZM308 73.8552V72.963H308.585C308.877 72.963 309.121 73.0456 309.121 73.3926C309.121 73.723 308.861 73.8386 308.585 73.8386H308V73.8552ZM308 72.517V71.724H308.601C308.861 71.724 309.023 71.9057 309.023 72.1205C309.023 72.3518 308.812 72.5005 308.569 72.5005H308V72.517Z" fill="#333333"/>
<path d="M315.095 74.4168C316.118 74.4168 316.589 73.7064 316.589 72.7978C316.589 71.8726 316.118 71.1787 315.095 71.1787C314.072 71.1787 313.602 71.8891 313.602 72.7978C313.602 73.7064 314.072 74.4168 315.095 74.4168ZM315.095 71.6413C315.761 71.6413 315.891 72.236 315.891 72.7812C315.891 73.3264 315.761 73.9212 315.095 73.9212C314.43 73.9212 314.3 73.3264 314.3 72.7812C314.3 72.2526 314.43 71.6413 315.095 71.6413Z" fill="#333333"/>
<path d="M317.823 64.207C317.953 65.76 317.287 68.6676 312.952 68.8494C311.036 68.932 308.634 68.3207 307.676 67.8746V64.1409H308.146C308.244 64.6035 309.153 68.0564 312.319 68.2216C314.154 68.3042 315.55 67.5277 315.582 65.9747C315.631 64.174 313.666 63.5462 311.897 62.8358C309.9 62.0263 307.968 61.2168 307.692 59.0195C307.4 56.4422 309.721 54.691 312.4 54.8067C313.878 54.8728 315.355 55.2362 316.491 55.6988V58.8543H316.021C315.745 57.1361 314.738 55.5171 312.433 55.3684C311.085 55.2858 309.867 55.7979 309.867 57.2848C309.867 58.7717 312.303 59.3829 314.072 60.0933C315.858 60.8203 317.612 61.8115 317.823 64.207Z" fill="#333333"/>
<path d="M329.918 64.207C330.048 65.76 329.382 68.6676 325.047 68.8494C323.132 68.932 320.729 68.3207 319.771 67.8746V64.1409H320.242C320.339 64.6035 321.248 68.0564 324.414 68.2216C326.249 68.3042 327.645 67.5277 327.678 65.9747C327.726 64.174 325.762 63.5462 323.992 62.8358C321.995 62.0263 320.063 61.2168 319.803 59.0195C319.495 56.4422 321.817 54.691 324.495 54.8067C325.973 54.8728 327.45 55.2362 328.587 55.6988V58.8543H328.116C327.84 57.1361 326.833 55.5171 324.528 55.3684C323.18 55.2858 321.963 55.7979 321.963 57.2848C321.963 58.7717 324.398 59.3829 326.168 60.0933C327.954 60.8203 329.707 61.8115 329.918 64.207Z" fill="#333333"/>
<path d="M291.538 61.861C291.538 57.896 294.688 54.6909 298.584 54.6909C302.481 54.6909 305.63 57.896 305.63 61.861C305.63 65.826 302.481 69.031 298.584 69.031C294.688 69.031 291.538 65.8094 291.538 61.861ZM298.584 68.4197C301.344 68.3867 302.302 64.8017 302.302 61.8444C302.302 58.8707 301.101 55.2526 298.584 55.2526C295.938 55.2361 294.866 58.8872 294.866 61.8444C294.866 64.8017 295.824 68.4528 298.584 68.4197Z" fill="#333333"/>
<path d="M278.533 67.5276C278.533 67.9241 278.079 68.1223 277.657 68.1223H277.332V68.6345H284.508C287.041 68.6345 289.736 67.445 289.768 64.8017C289.801 61.7783 286.765 61.2497 285.807 61.1671C287.3 60.9193 289.07 59.6472 288.989 57.8299C288.892 55.8969 286.878 54.9883 284.979 54.9883L277.413 55.0048V55.5169H277.803C278.095 55.5169 278.55 55.5996 278.55 56.0291V67.5276H278.533ZM281.602 68.0728V61.5305H283.372C285.368 61.5305 286.408 62.9678 286.489 64.6034C286.602 66.5529 285.174 68.0728 283.372 68.0728H281.602ZM281.602 61.0019V55.5169H283.096C284.557 55.5169 285.758 56.4586 285.823 58.1603C285.888 59.7793 284.687 61.0019 283.177 61.0019H281.602Z" fill="#333333"/>
<path fill-rule="evenodd" clip-rule="evenodd" d="M140.551 66.6212H141.867V60.0413H140.551V59.7671C142.141 59.7671 143.621 59.7671 145.212 59.7671C146.199 59.7671 147.405 59.8219 148.282 60.1509C148.885 60.4251 149.214 60.9734 149.214 61.5217C149.214 62.0701 148.885 62.3442 148.392 62.7281C148.118 62.8926 147.953 62.9474 147.569 63.0571C148.118 63.1119 148.502 63.2216 149.05 63.5506C149.598 63.9344 149.872 64.4827 149.872 64.9762C149.872 65.5794 149.434 66.1825 148.666 66.4019C147.515 66.8405 146.199 66.8405 144.937 66.8405H140.551V66.6212ZM144.06 66.6212H144.992C145.815 66.6212 146.418 66.4567 146.911 66.2922C147.35 66.0729 147.734 65.689 147.734 64.9762C147.734 64.1537 147.515 63.5506 146.582 63.2764C146.144 63.1667 144.005 63.2216 144.005 63.2216V66.6212H144.06ZM144.06 62.8926C145.047 62.8926 146.144 62.9474 146.528 62.7829C147.131 62.5087 147.35 62.2346 147.35 61.4669C147.35 60.8089 147.131 60.4799 146.747 60.3154C146.308 60.0961 145.541 60.0413 144.828 60.0413H144.06V62.8926ZM178.111 66.6212H179.427V60.0413H178.111V59.7671C179.701 59.7671 181.237 59.7671 182.772 59.7671C183.759 59.7671 184.965 59.8219 185.843 60.1509C186.501 60.4251 186.775 60.9734 186.775 61.5217C186.775 62.0701 186.446 62.3442 185.952 62.7281C185.678 62.8926 185.514 62.9474 185.13 63.0571C185.678 63.1119 186.062 63.2216 186.665 63.5506C187.214 63.9344 187.433 64.4827 187.433 64.9762C187.433 65.5794 186.994 66.1825 186.281 66.4019C185.13 66.8405 183.759 66.8405 182.553 66.8405H178.111V66.6212ZM181.675 66.6212H182.608C183.43 66.6212 184.033 66.4567 184.527 66.2922C184.965 66.0729 185.349 65.689 185.349 64.9762C185.349 64.1537 185.185 63.5506 184.198 63.2764C183.759 63.1667 181.675 63.2216 181.675 63.2216V66.6212ZM181.675 62.8926C182.662 62.8926 183.704 62.9474 184.143 62.7829C184.746 62.5087 184.965 62.2346 184.965 61.4669C184.965 60.8089 184.691 60.4799 184.307 60.2606C183.869 60.0413 183.101 59.9864 182.388 59.9864H181.675V62.8926ZM153.436 65.0859V60.0413H151.956V59.7671H156.891V60.0413H155.465V65.031C155.465 65.5245 155.685 65.8535 156.123 66.1277C156.507 66.4567 157.001 66.6212 157.933 66.6212C159.029 66.6212 159.852 66.4019 160.291 65.9632C160.784 65.5794 161.003 65.0859 161.003 64.5924V60.0413H159.578V59.7671H163.032V60.0413H161.607V64.6472C161.607 65.36 161.278 65.9632 160.674 66.4019C159.962 66.8405 159.249 67.0599 157.988 67.0599C156.781 67.0599 155.41 66.8954 154.643 66.5664C153.82 66.2374 153.436 65.7439 153.436 65.0859ZM166.487 66.6212V60.0413H165.061V59.7671H170.544C171.751 59.8219 172.354 59.7671 173.176 60.0961C173.725 60.3154 174.108 60.8089 174.108 61.4669C174.108 62.8377 172.847 63.0022 171.97 63.1667C172.738 63.2216 173.176 63.3312 173.67 63.5506C174.163 63.8247 174.383 64.2634 174.492 64.4827C174.602 64.8665 174.547 65.3052 174.547 65.689C174.602 66.4019 174.986 66.676 175.589 66.6212C175.753 66.5664 175.918 66.5115 176.028 66.4019L176.192 66.7309C175.808 67.005 175.37 67.1147 174.931 67.0599C174.218 67.0599 173.615 66.9502 173.176 66.676C172.738 66.4019 172.463 66.018 172.354 65.4697C172.354 65.031 172.354 64.5924 172.244 64.1537C171.97 63.4409 171.038 63.3312 170.435 63.3312H168.68V66.676H170.16V66.8954H164.951V66.6212H166.487ZM168.625 62.9474H170.544C171.476 62.9474 172.025 62.5636 172.025 61.4121C172.025 60.4799 171.257 59.9864 170.435 59.9864H168.625V62.9474ZM216.933 66.6212V60.0413H215.507V59.7671H220.991C222.197 59.8219 222.8 59.7671 223.568 60.0961C224.171 60.3154 224.555 60.8089 224.555 61.4669C224.555 62.8377 223.293 63.0022 222.361 63.1667C223.184 63.2216 223.568 63.3312 224.061 63.5506C224.609 63.8247 224.829 64.2634 224.884 64.4827C225.048 64.8665 224.993 65.3052 224.993 65.689C225.048 66.4019 225.432 66.676 226.035 66.6212C226.2 66.5664 226.364 66.5115 226.474 66.4019L226.638 66.7309C226.309 67.005 225.816 67.1147 225.377 67.0599C224.664 67.0599 224.116 66.9502 223.677 66.676C223.239 66.4019 222.91 66.018 222.855 65.4697C222.8 65.031 222.8 64.5924 222.635 64.1537C222.416 63.4409 221.429 63.3312 220.826 63.3312H219.126V66.676H220.607V66.8954H215.398V66.6212H216.933ZM219.071 62.9474H220.936C221.868 62.9474 222.471 62.5636 222.471 61.4121C222.471 60.4799 221.703 59.9864 220.881 59.9864H219.071V62.9474ZM203.883 66.6212V60.0413H202.457V59.7671H207.94C209.147 59.8219 209.75 59.7671 210.572 60.0961C211.121 60.3154 211.559 60.8089 211.559 61.4669C211.559 62.8377 210.298 63.0022 209.366 63.1667C210.134 63.2216 210.572 63.3312 211.066 63.5506C211.559 63.8247 211.779 64.2634 211.888 64.4827C212.053 64.8665 211.943 65.3052 211.943 65.689C211.998 66.4019 212.382 66.676 212.985 66.6212C213.149 66.5664 213.314 66.5115 213.424 66.4019L213.588 66.7309C213.259 67.005 212.766 67.1147 212.327 67.0599C211.614 67.0599 211.011 66.9502 210.572 66.676C210.134 66.4019 209.859 66.018 209.75 65.4697C209.695 65.031 209.695 64.5924 209.585 64.1537C209.311 63.4409 208.379 63.3312 207.776 63.3312H206.021V66.676H207.556V66.8954H202.347V66.6212H203.883ZM206.076 62.9474H207.995C208.927 62.9474 209.476 62.5636 209.476 61.4121C209.476 60.4799 208.708 59.9864 207.885 59.9864H206.076V62.9474ZM189.9 66.6212H191.326V60.0413H189.9V59.7671H198.948V61.9056H198.619C198.454 61.3572 198.07 60.5896 197.632 60.3154C197.303 60.1509 196.809 60.0413 195.987 60.0413H193.519V63.0571C194.068 63.0571 194.835 63.1119 195.329 62.8926C195.713 62.7281 195.987 62.2894 196.042 61.8507H196.425V64.702H196.042C195.987 64.1537 195.658 63.8247 195.274 63.6602C194.89 63.4957 194.177 63.4957 193.464 63.4957V66.676H196.206C197.412 66.676 197.796 66.5115 198.29 66.2374C198.728 65.9084 199.112 65.1955 199.222 64.4827H199.551V66.8954H189.9V66.6212ZM230.257 66.6212H231.957V63.5506L228.612 60.0413H227.187V59.7671H232.67V60.0413H231.025L233.821 63.1667L236.728 60.0413H234.808V59.7671H238.866V60.0413H237.331L234.15 63.5506V66.6212H235.85V66.8954H230.367V66.6212H230.257Z" fill="#333333"/>
<path fill-rule="evenodd" clip-rule="evenodd" d="M30.2412 58.0166L31.2851 59.1444V67.4407L30.5152 68.5296L35.2651 68.5425L34.4039 67.5444L34.3125 64.5629L38.8928 64.5889C40.3021 64.1351 41.7245 63.1889 41.8028 61.2703C41.7767 59.4166 40.6022 58.237 39.2321 57.9907L30.2412 58.0166ZM34.156 58.5481V63.8759L37.6792 63.9018C38.4752 63.2796 39.0885 62.8129 39.0624 61.3222C39.0494 60.1166 38.7884 59.0537 37.6009 58.5481H34.156Z" fill="#333333"/>
<path fill-rule="evenodd" clip-rule="evenodd" d="M43.9951 57.9649L45.039 59.0926V67.3889L44.2691 68.4778L49.019 68.4908L48.1578 67.4926L48.0665 64.5111H48.0795L52.986 68.5297L57.0573 68.5037L53.3383 65.4185H50.2326L49.1365 64.5241L52.6337 64.5371C54.0169 64.0963 55.4523 63.15 55.5175 61.2315C55.4914 59.3778 54.317 58.1852 52.9468 57.9519L43.9951 57.9649ZM47.9099 58.4834V63.8111L51.4331 63.8371C52.2291 63.2149 52.8424 62.7482 52.8163 61.2575C52.8033 60.0519 52.5423 58.9889 51.3548 58.4834H47.9099Z" fill="#333333"/>
<path fill-rule="evenodd" clip-rule="evenodd" d="M61.0111 57.9519H65.1086L70.4457 67.4408C70.6806 68.1797 71.3722 68.0889 71.8289 68.4H66.6614L67.4313 68.1667L67.3791 67.4537L66.0481 65.4056L61.507 65.4315L60.5414 67.4019C60.5153 67.6222 60.2543 67.8037 60.45 68.0759L60.8154 68.413L58.584 68.3611L59.5496 68.0759L63.2164 60.6741V60.1686L61.6766 58.2112L61.0111 57.9519ZM61.8071 64.7704L63.6862 61.3482L65.6436 64.7445L61.8071 64.7704Z" fill="#333333"/>
<path fill-rule="evenodd" clip-rule="evenodd" d="M88.7406 57.9648H92.8381L98.1752 67.4667C98.41 68.2056 99.1016 68.1148 99.5584 68.4259H94.3909L95.1608 68.1926L95.1086 67.4796L93.7776 65.4445L89.2365 65.4704L88.2708 67.4407C88.2448 67.6611 87.9838 67.8426 88.1795 68.1148L88.5449 68.4519L86.3135 68.4L87.2791 68.1148L90.9459 60.713V60.2074L89.3931 58.2241L88.7406 57.9648ZM89.5366 64.7833L91.4157 61.3611L93.3731 64.7574L89.5366 64.7833Z" fill="#333333"/>
<path fill-rule="evenodd" clip-rule="evenodd" d="M73.2512 57.8481L80.5587 57.887C82.9076 58.4185 84.4082 59.7926 84.8649 62.1907L84.8519 64.0703C84.4213 66.2092 83.012 67.687 80.5457 68.4389L73.2251 68.4518V68.2314C74.3343 68.1537 74.4256 68.024 74.4256 67.4018V58.8593C74.4126 58.3926 74.3212 58.0944 73.2381 58.0685L73.2512 57.8481ZM77.4008 58.5741L77.3878 67.8166C78.3534 67.8166 79.1886 67.9074 79.6583 67.674C80.7284 67.2074 81.2242 66.4815 81.2764 65.8074L81.2503 60.363C81.2503 59.4944 80.2586 58.8722 79.6975 58.7167C79.2799 58.5611 78.4709 58.5611 77.4008 58.5741Z" fill="#333333"/>
<path d="M188.577 20.2543L193.127 15.7047H250.979V15.4979H193.127L188.577 11L184.08 15.4979H126.021V15.7047H184.08L188.577 20.2543ZM188.577 11.3102L192.92 15.6013L188.577 19.9441L184.235 15.6013L188.577 11.3102Z" fill="#555555"/>
</svg>
