<svg width="375" height="60" viewBox="0 0 375 60" fill="none" xmlns="http://www.w3.org/2000/svg">
<g clip-path="url(#clip0_1_3749)">
<rect width="375" height="60" fill="white"/>
<path d="M16.3066 34.7537H31.9822" stroke="#14142B"/>
<path d="M16.3066 27.7537H39.6931" stroke="#14142B"/>
<path d="M16.3066 41.7537H39.6931" stroke="#14142B"/>
<path d="M299 44C303.971 44 308 39.9706 308 35C308 30.0294 303.971 26 299 26C294.029 26 290 30.0294 290 35C290 39.9706 294.029 44 299 44Z" stroke="#14142B"/>
<path d="M310 45.9999L306.782 42.7822" stroke="#14142B"/>
<path d="M331.496 47.28L332.312 30.7207H348.659L349.475 47.28H331.496Z" stroke="#14142B"/>
<path d="M336.16 34.1491L336.16 29.5514C336.16 28.4044 336.616 27.3043 337.427 26.4933C338.238 25.6822 339.338 25.2266 340.485 25.2266C341.632 25.2266 342.732 25.6822 343.543 26.4933C344.354 27.3043 344.81 28.4044 344.81 29.5514V34.1491" stroke="#14142B"/>
<g opacity="0.8">
<path d="M152.927 29.3267H152.143C152.143 30.5946 151.226 31.9293 149.424 31.9293C147.372 31.9293 145.003 30.3611 145.003 25.6732C145.003 20.9853 147.372 19.4171 149.424 19.4171C151.226 19.4171 151.926 20.7517 151.926 22.0196H152.71V19.2002C152.043 19.1001 150.525 19 149.424 19C145.387 19 142 20.6683 142 25.6732C142 30.678 145.387 32.3463 149.424 32.3463C150.525 32.3463 152.26 32.2462 152.927 32.1461V29.3267Z" fill="#2B2B2B"/>
<path d="M157.1 19H153.93V19.4171C154.264 19.4171 154.598 19.7507 154.598 20.0844V32.3463H157.767V31.9293C157.434 31.9293 157.1 31.5956 157.1 31.262V19Z" fill="#2B2B2B"/>
<path d="M166.735 28.0755C166.735 25.3729 165.55 23.6045 162.614 23.6045C161.513 23.6045 160.863 23.6879 159.495 23.838V26.8577H160.279C160.279 25.5898 160.812 24.0049 162.614 24.0049C163.465 24.0049 164.066 24.4053 164.182 25.2561C164.566 27.9754 158.594 26.891 158.594 30.1275C158.594 31.9293 159.995 32.5799 161.313 32.5799C162.648 32.5799 163.765 31.7291 164.232 30.9783V32.3463H167.402V31.9293C167.069 31.9293 166.735 31.5956 166.735 31.262V28.0755ZM162.447 31.5622C161.663 31.5622 161.246 31.0117 161.246 30.1275C161.246 28.4092 163.932 27.5917 164.232 26.5574C164.249 27.2914 164.232 28.0255 164.232 28.0755V29.9607C164.066 30.7114 163.232 31.5622 162.447 31.5622Z" fill="#2B2B2B"/>
<path d="M170.24 25.2394C170.24 24.2885 171.158 24.0049 171.642 24.0049C173.444 24.0049 174.144 25.5898 174.144 26.8577H174.928V23.838C173.56 23.6879 172.743 23.6045 171.642 23.6045C169.44 23.6045 168.205 24.472 168.205 26.0235C168.205 29.1432 173.56 28.3424 173.56 30.578C173.56 31.4621 172.76 32.1795 171.859 32.1795C170.057 32.1795 168.856 30.5946 168.856 29.3267H168.072V32.3463C169.44 32.4965 170.758 32.5799 171.859 32.5799C174.111 32.5799 175.562 31.7458 175.562 29.8606C175.562 26.8577 170.24 26.9578 170.24 25.2394Z" fill="#2B2B2B"/>
<path d="M178.403 25.2394C178.403 24.2885 179.32 24.0049 179.804 24.0049C181.606 24.0049 182.306 25.5898 182.306 26.8577H183.091V23.838C181.723 23.6879 180.905 23.6045 179.804 23.6045C177.602 23.6045 176.367 24.472 176.367 26.0235C176.367 29.1432 181.723 28.3424 181.723 30.578C181.723 31.4621 180.922 32.1795 180.021 32.1795C178.219 32.1795 177.018 30.5946 177.018 29.3267H176.234V32.3463C177.602 32.4965 178.92 32.5799 180.021 32.5799C182.273 32.5799 183.725 31.7458 183.725 29.8606C183.725 26.8577 178.403 26.9578 178.403 25.2394Z" fill="#2B2B2B"/>
<path d="M192.688 23.838H191.687L189.534 29.0765L187.316 23.838H184.346V24.2551C184.68 24.2551 184.897 24.6221 185.013 24.9224L188.1 32.5966L187.166 34.8655C186.281 36.8507 184.179 37.3512 184.179 34.3316H183.395V37.3512C185.23 37.6348 186.965 37.2845 188 34.8655L192.02 24.9224C192.137 24.6221 192.354 24.2551 192.688 24.2551V23.838Z" fill="#2B2B2B"/>
<path d="M162.149 35.1383C162.149 33.5368 163.617 33.1197 164.351 33.1197C167.07 33.1197 168.538 35.6722 168.538 37.5907H169.322V33.0196C167.254 32.8027 166.003 32.7026 164.351 32.7026C161.014 32.7026 159.146 34.1374 159.146 36.3228C159.146 40.6938 167.337 39.8429 167.337 43.2129C167.337 44.5642 166.319 45.8321 164.668 45.8321C161.949 45.8321 159.73 43.2462 159.73 41.3277H158.946V45.8988C161.014 46.1157 163 46.2492 164.668 46.2492C168.071 46.2492 170.273 44.9813 170.273 42.1285C170.273 37.5907 162.149 37.7409 162.149 35.1383Z" fill="#2B2B2B"/>
<path d="M174.441 38.8253C174.441 38.4916 174.774 38.158 175.108 38.158H176.726V37.7409H174.441V34.5711H171.271V34.9882C171.604 34.9882 171.938 35.3219 171.938 35.6555V37.7409H171.271V38.158C171.604 38.158 171.938 38.4916 171.938 38.8253V44.0303C171.938 45.8321 173.339 46.4827 174.657 46.4827C175.542 46.4827 176.342 46.1157 176.726 45.6486V45.1147C176.443 45.3316 176.075 45.4651 175.792 45.4651C174.941 45.4651 174.441 44.9813 174.441 44.0303V38.8253Z" fill="#2B2B2B"/>
<path d="M181.809 37.5073C179.173 37.5073 177.238 39.4926 177.238 42.0117C177.238 44.5308 179.173 46.4994 181.809 46.4994C184.445 46.4994 186.38 44.5308 186.38 42.0117C186.38 39.4926 184.445 37.5073 181.809 37.5073ZM181.809 46.099C180.758 46.099 179.907 44.314 179.907 42.0117C179.907 39.7095 180.758 37.9077 181.809 37.9077C182.86 37.9077 183.711 39.7095 183.711 42.0117C183.711 44.314 182.86 46.099 181.809 46.099Z" fill="#2B2B2B"/>
<path d="M190.39 37.7409H187.221V38.158C187.554 38.158 187.888 38.4916 187.888 38.8253V46.2492H191.058V45.8321C190.724 45.8321 190.39 45.4984 190.39 45.1648V39.6261C191.275 38.1746 193.076 38.0078 193.076 40.577H193.86V37.5741C192.542 37.3405 191.358 37.7242 190.39 38.842V37.7409Z" fill="#2B2B2B"/>
<path d="M201.288 43.1962C201.622 44.5475 200.788 46.2492 199.437 46.0823C198.519 45.9155 197.968 45.2148 197.718 44.0137C197.418 41.6947 203.557 43.7301 203.557 40.2767C203.557 38.4582 201.689 37.5073 199.787 37.5073C196.801 37.5073 194.865 39.3091 194.865 41.995C194.865 44.5141 196.801 46.4827 199.437 46.4827C201.839 46.4827 203.774 45.2816 203.774 43.2129C203.774 42.9626 203.757 42.679 203.657 42.3454L201.288 43.1962ZM199.77 37.9077C200.754 37.9077 201.255 38.7752 201.255 39.7095C201.255 41.578 198.152 42.0284 197.568 42.9793C197.551 42.679 197.535 42.3454 197.535 41.995C197.535 39.526 198.352 37.9077 199.77 37.9077Z" fill="#2B2B2B"/>
</g>
</g>
<defs>
<clipPath id="clip0_1_3749">
<rect width="375" height="60" fill="white"/>
</clipPath>
</defs>
</svg>
