<svg width="25" height="25" viewBox="0 0 25 25" fill="none" xmlns="http://www.w3.org/2000/svg">
<path d="M8.49834 3.18369C5.41114 3.18369 2.8999 5.69725 2.8999 8.78525V16.7852C2.8999 19.8724 5.41346 22.3837 8.50146 22.3837H16.5015C19.5887 22.3837 22.0999 19.8701 22.0999 16.7821V8.78212C22.0999 5.69492 19.5863 3.18369 16.4983 3.18369H8.49834ZM18.0999 6.38369C18.5415 6.38369 18.8999 6.74209 18.8999 7.18369C18.8999 7.62529 18.5415 7.98369 18.0999 7.98369C17.6583 7.98369 17.2999 7.62529 17.2999 7.18369C17.2999 6.74209 17.6583 6.38369 18.0999 6.38369ZM12.4999 7.98369C15.1471 7.98369 17.2999 10.1365 17.2999 12.7837C17.2999 15.4309 15.1471 17.5837 12.4999 17.5837C9.8527 17.5837 7.6999 15.4309 7.6999 12.7837C7.6999 10.1365 9.8527 7.98369 12.4999 7.98369ZM12.4999 9.58369C11.6512 9.58369 10.8373 9.92083 10.2372 10.5209C9.63704 11.1211 9.2999 11.935 9.2999 12.7837C9.2999 13.6324 9.63704 14.4463 10.2372 15.0464C10.8373 15.6465 11.6512 15.9837 12.4999 15.9837C13.3486 15.9837 14.1625 15.6465 14.7626 15.0464C15.3628 14.4463 15.6999 13.6324 15.6999 12.7837C15.6999 11.935 15.3628 11.1211 14.7626 10.5209C14.1625 9.92083 13.3486 9.58369 12.4999 9.58369Z" fill="#333333"/>
</svg>
