<svg width="98" height="40" viewBox="0 0 98 40" fill="none" xmlns="http://www.w3.org/2000/svg">
<g opacity="0.8" clip-path="url(#clip0_1_3340)">
<path d="M11.3214 10.3267H10.5373C10.5373 11.5946 9.6197 12.9293 7.81795 12.9293C5.76595 12.9293 3.39697 11.3611 3.39697 6.67317C3.39697 1.98527 5.76595 0.417073 7.81795 0.417073C9.6197 0.417073 10.3204 1.75171 10.3204 3.01961H11.1045V0.200195C10.4372 0.100097 8.91902 0 7.81795 0C3.78068 0 0.394043 1.66829 0.394043 6.67317C0.394043 11.678 3.78068 13.3463 7.81795 13.3463C8.91902 13.3463 10.654 13.2462 11.3214 13.1461V10.3267Z" fill="#2B2B2B"/>
<path d="M15.494 0H12.3243V0.417073C12.6579 0.417073 12.9916 0.750731 12.9916 1.08439V13.3463H16.1614V12.9293C15.8277 12.9293 15.494 12.5956 15.494 12.262V0Z" fill="#2B2B2B"/>
<path d="M25.129 9.07551C25.129 6.37288 23.9445 4.60449 21.0083 4.60449C19.9072 4.60449 19.2566 4.6879 17.8886 4.83805V7.85766H18.6727C18.6727 6.58976 19.2065 5.00488 21.0083 5.00488C21.8591 5.00488 22.4597 5.40527 22.5765 6.2561C22.9602 8.97541 16.9877 7.89102 16.9877 11.1275C16.9877 12.9293 18.3891 13.5799 19.707 13.5799C21.0416 13.5799 22.1594 12.7291 22.6265 11.9783V13.3463H25.7963V12.9293C25.4626 12.9293 25.129 12.5956 25.129 12.262V9.07551ZM20.8414 12.5622C20.0573 12.5622 19.6403 12.0117 19.6403 11.1275C19.6403 9.40917 22.3262 8.59171 22.6265 7.55737C22.6432 8.29141 22.6265 9.02546 22.6265 9.07551V10.9607C22.4597 11.7114 21.6255 12.5622 20.8414 12.5622Z" fill="#2B2B2B"/>
<path d="M28.6345 6.23941C28.6345 5.28849 29.552 5.00488 30.0358 5.00488C31.8376 5.00488 32.5383 6.58976 32.5383 7.85766H33.3224V4.83805C31.9544 4.6879 31.1369 4.60449 30.0358 4.60449C27.8337 4.60449 26.5991 5.472 26.5991 7.02351C26.5991 10.1432 31.9544 9.34244 31.9544 11.578C31.9544 12.4621 31.1536 13.1795 30.2527 13.1795C28.4509 13.1795 27.2498 11.5946 27.2498 10.3267H26.4657V13.3463C27.8337 13.4965 29.1516 13.5799 30.2527 13.5799C32.5049 13.5799 33.9563 12.7458 33.9563 10.8606C33.9563 7.85766 28.6345 7.95776 28.6345 6.23941Z" fill="#2B2B2B"/>
<path d="M36.7967 6.23941C36.7967 5.28849 37.7143 5.00488 38.1981 5.00488C39.9998 5.00488 40.7005 6.58976 40.7005 7.85766H41.4846V4.83805C40.1166 4.6879 39.2992 4.60449 38.1981 4.60449C35.9959 4.60449 34.7614 5.472 34.7614 7.02351C34.7614 10.1432 40.1166 9.34244 40.1166 11.578C40.1166 12.4621 39.3158 13.1795 38.415 13.1795C36.6132 13.1795 35.412 11.5946 35.412 10.3267H34.6279V13.3463C35.9959 13.4965 37.3139 13.5799 38.415 13.5799C40.6672 13.5799 42.1186 12.7458 42.1186 10.8606C42.1186 7.85766 36.7967 7.95776 36.7967 6.23941Z" fill="#2B2B2B"/>
<path d="M51.0816 4.83805H50.0806L47.9285 10.0765L45.7097 4.83805H42.7401V5.25512C43.0738 5.25512 43.2907 5.62215 43.4074 5.92244L46.4938 13.5966L45.5595 15.8655C44.6754 17.8507 42.5733 18.3512 42.5733 15.3316H41.7892V18.3512C43.6243 18.6348 45.3594 18.2845 46.3937 15.8655L50.4143 5.92244C50.5311 5.62215 50.7479 5.25512 51.0816 5.25512V4.83805Z" fill="#2B2B2B"/>
<path d="M20.5428 16.1383C20.5428 14.5368 22.0109 14.1197 22.745 14.1197C25.4643 14.1197 26.9324 16.6722 26.9324 18.5907H27.7165V14.0196C25.6478 13.8027 24.3966 13.7026 22.745 13.7026C19.4084 13.7026 17.5399 15.1374 17.5399 17.3228C17.5399 21.6938 25.7312 20.8429 25.7312 24.2129C25.7312 25.5642 24.7135 26.8321 23.0619 26.8321C20.3426 26.8321 18.1238 24.2462 18.1238 22.3277H17.3397V26.8988C19.4084 27.1157 21.3936 27.2492 23.0619 27.2492C26.4652 27.2492 28.6674 25.9813 28.6674 23.1285C28.6674 18.5907 20.5428 18.7409 20.5428 16.1383Z" fill="#2B2B2B"/>
<path d="M32.8346 19.8253C32.8346 19.4916 33.1683 19.158 33.5019 19.158H35.1202V18.7409H32.8346V15.5711H29.6649V15.9882C29.9985 15.9882 30.3322 16.3219 30.3322 16.6555V18.7409H29.6649V19.158C29.9985 19.158 30.3322 19.4916 30.3322 19.8253V25.0303C30.3322 26.8321 31.7335 27.4827 33.0515 27.4827C33.9357 27.4827 34.7365 27.1157 35.1202 26.6486V26.1147C34.8366 26.3316 34.4695 26.4651 34.1859 26.4651C33.3351 26.4651 32.8346 25.9813 32.8346 25.0303V19.8253Z" fill="#2B2B2B"/>
<path d="M40.2027 18.5073C37.5668 18.5073 35.6316 20.4926 35.6316 23.0117C35.6316 25.5308 37.5668 27.4994 40.2027 27.4994C42.8386 27.4994 44.7738 25.5308 44.7738 23.0117C44.7738 20.4926 42.8386 18.5073 40.2027 18.5073ZM40.2027 27.099C39.1517 27.099 38.3009 25.314 38.3009 23.0117C38.3009 20.7095 39.1517 18.9077 40.2027 18.9077C41.2537 18.9077 42.1046 20.7095 42.1046 23.0117C42.1046 25.314 41.2537 27.099 40.2027 27.099Z" fill="#2B2B2B"/>
<path d="M48.7844 18.7409H45.6146V19.158C45.9483 19.158 46.282 19.4916 46.282 19.8253V27.2492H49.4517V26.8321C49.1181 26.8321 48.7844 26.4984 48.7844 26.1648V20.6261C49.6686 19.1746 51.4703 19.0078 51.4703 21.577H52.2544V18.5741C50.9365 18.3405 49.752 18.7242 48.7844 19.842V18.7409Z" fill="#2B2B2B"/>
<path d="M59.6824 24.1962C60.016 25.5475 59.1819 27.2492 57.8306 27.0823C56.913 26.9155 56.3625 26.2148 56.1122 25.0137C55.8119 22.6947 61.9513 24.7301 61.9513 21.2767C61.9513 19.4582 60.0828 18.5073 58.1809 18.5073C55.1947 18.5073 53.2595 20.3091 53.2595 22.995C53.2595 25.5141 55.1947 27.4827 57.8306 27.4827C60.2329 27.4827 62.1681 26.2816 62.1681 24.2129C62.1681 23.9626 62.1515 23.679 62.0514 23.3454L59.6824 24.1962ZM58.1642 18.9077C59.1485 18.9077 59.649 19.7752 59.649 20.7095C59.649 22.578 56.546 23.0284 55.9621 23.9793C55.9454 23.679 55.9287 23.3454 55.9287 22.995C55.9287 20.526 56.7462 18.9077 58.1642 18.9077Z" fill="#2B2B2B"/>
</g>
<defs>
<clipPath id="clip0_1_3340">
<rect width="97.6062" height="40" fill="white" transform="translate(0.394043)"/>
</clipPath>
</defs>
</svg>
