<svg width="21" height="20" viewBox="0 0 21 20" fill="none" xmlns="http://www.w3.org/2000/svg">
<g opacity="0.5">
<path d="M3.37669 7.84092C3.83266 6.25077 4.78034 4.84578 6.0839 3.82733C7.38745 2.80888 8.97997 2.22925 10.6332 2.17152C12.2864 2.11379 13.9155 2.58092 15.2869 3.50595C16.6583 4.43099 17.7017 5.76645 18.2675 7.32093" stroke="black" stroke-linejoin="round"/>
<path d="M18.1241 13.0451C17.5348 14.4417 16.553 15.6373 15.2977 16.487C14.0424 17.3366 12.5676 17.8038 11.052 17.8319C9.53649 17.86 8.04535 17.4478 6.75944 16.6452C5.47353 15.8426 4.4481 14.6842 3.80749 13.3104" stroke="black" stroke-linejoin="round"/>
<path d="M7.33469 12.5203L3.6229 12.7633L2.24451 16.2941" stroke="black"/>
<path d="M14.3955 7.80029L18.2502 7.79082L19.5663 4.28137" stroke="black"/>
</g>
</svg>
