<svg width="25" height="25" viewBox="0 0 25 25" fill="none" xmlns="http://www.w3.org/2000/svg">
<path d="M12.5001 3.9837C9.1513 3.9837 4.80479 4.82277 4.80479 4.82277L4.79385 4.83527C3.26863 5.0792 2.1001 6.3898 2.1001 7.9837V12.7837V12.7853V17.5837V17.5853C2.10159 18.3465 2.37439 19.0823 2.86954 19.6605C3.36468 20.2386 4.04972 20.6214 4.80166 20.74L4.80479 20.7446C4.80479 20.7446 9.1513 21.5853 12.5001 21.5853C15.8489 21.5853 20.1954 20.7446 20.1954 20.7446L20.197 20.7431C20.9497 20.6248 21.6356 20.2417 22.1311 19.6628C22.6266 19.084 22.8993 18.3473 22.9001 17.5853V17.5837V12.7853V12.7837V7.9837C22.899 7.22221 22.6263 6.48607 22.1312 5.90755C21.636 5.32903 20.9507 4.94607 20.1985 4.82745L20.1954 4.82277C20.1954 4.82277 15.8489 3.9837 12.5001 3.9837ZM10.1001 9.10245L16.5001 12.7837L10.1001 16.465V9.10245Z" fill="#333333"/>
</svg>
